<svg width="22" height="23" xmlns="http://www.w3.org/2000/svg" xmlns:xlink="http://www.w3.org/1999/xlink" overflow="hidden"><defs><clipPath id="clip0"><rect x="60" y="101" width="22" height="23"/></clipPath><clipPath id="clip1"><rect x="60" y="102" width="22" height="22"/></clipPath><clipPath id="clip2"><rect x="60" y="102" width="22" height="22"/></clipPath><clipPath id="clip3"><rect x="60" y="102" width="22" height="22"/></clipPath></defs><g clip-path="url(#clip0)" transform="translate(-60 -101)"><g clip-path="url(#clip1)"><g clip-path="url(#clip2)"><g clip-path="url(#clip3)"><path d="M69.7579 118.866C66.6386 115.639 63.5194 112.413 60.4032 109.186 59.1175 107.858 61.2051 105.877 62.4939 107.212 65.2703 110.083 68.0437 112.955 70.8201 115.824 73.6914 112.939 76.5658 110.054 79.4371 107.168 80.7442 105.854 82.8319 107.835 81.5263 109.144 78.3014 112.385 75.0751 115.625 71.8486 118.866 71.313 119.401 70.2875 119.415 69.758 118.866Z" fill="#CFCFCF" fill-rule="nonzero" fill-opacity="1"/></g></g></g></g></svg>