<svg xmlns="http://www.w3.org/2000/svg" viewBox="0 0 32 32" width="20" height="20" style="border-color: rgba(187,187,187,1);border-width: 0px;border-style: solid" filter="none">
    
    <g>
    <path d="M16 2.667c7.36 0 13.333 5.973 13.333 13.333s-5.973 13.333-13.333 13.333-13.333-5.973-13.333-13.333 5.973-13.333 13.333-13.333zM16 26.667c5.903 0 10.667-4.764 10.667-10.667s-4.764-10.667-10.667-10.667c-0.004 0-0.009 0-0.013 0-5.884 0-10.653 4.77-10.653 10.653 0 0.005 0 0.009 0 0.014v-0.001c0 5.903 4.764 10.667 10.667 10.667zM16 24c-4.427 0-8-3.573-8-8s3.573-8 8-8 8 3.573 8 8-3.573 8-8 8zM16 13.333c-1.467 0-2.667 1.2-2.667 2.667s1.2 2.667 2.667 2.667 2.667-1.2 2.667-2.667-1.2-2.667-2.667-2.667z" fill="rgba(51,211.905,201.96,1)"></path>
    </g>
  </svg>