<svg xmlns="http://www.w3.org/2000/svg" viewBox="0 0 32 32" width="22" height="22" style="border-color: rgba(187,187,187,1);border-width: 0px;border-style: solid" filter="none">
    
    <g>
    <path d="M4.568 20.689l5.736-2.738c0.224-0.109 0.487-0.173 0.766-0.173 0 0 0 0 0 0h9.862c0.265 0 0.527 0.059 0.766 0.173l5.736 2.738c0.603 0.293 1.012 0.901 1.012 1.604v0 6.151c0 0.982-0.796 1.778-1.778 1.778h-21.333c-0.982 0-1.778-0.796-1.778-1.778v-6.151c0-0.703 0.409-1.312 1.001-1.6l0.011-0.005zM17.778 24c0 0.491 0.398 0.889 0.889 0.889h3.556c0.491 0 0.889-0.398 0.889-0.889s-0.398-0.889-0.889-0.889h-3.556c-0.491 0-0.889 0.398-0.889 0.889zM16 16c-3.927 0-7.111-3.184-7.111-7.111s3.184-7.111 7.111-7.111 7.111 3.184 7.111 7.111-3.184 7.111-7.111 7.111z" fill="rgba(246.075,163.965,163.965,1)"></path>
    </g>
  </svg>