<svg xmlns="http://www.w3.org/2000/svg" viewBox="0 0 32 32" width="24" height="24" style="border-color: rgba(187,187,187,1);border-width: 0px;border-style: solid" filter="none">
    
    <g>
    <path d="M9.444 5.332c-0.023 0-0.044 0.002-0.068 0.002-0.745 0.032-1.653 0.59-2.773 1.71-4.471 4.473 4.368 13.417 4.459 13.508 0.091 0.087 9.029 8.935 13.508 4.457 1.12-1.12 1.678-2.027 1.71-2.772 0.027-0.688-0.373-1.406-1.303-2.336-0.921-0.923-1.691-1.358-2.331-1.3-0.585 0.057-1.209 0.572-1.854 1.534-0.581 0.974-1.385 1.271-1.95 1.34-1.472 0.188-3.212-0.827-5.545-3.159-2.334-2.336-3.339-4.098-3.159-5.543 0.069-0.567 0.364-1.369 1.378-1.977 0.924-0.62 1.44-1.244 1.497-1.829 0.060-0.624-0.377-1.408-1.301-2.332-0.896-0.896-1.6-1.303-2.267-1.303zM21.481 28.058c-5.348 0-11.353-5.925-11.676-6.249-0.418-0.42-10.174-10.306-4.459-16.021 1.47-1.47 2.727-2.18 3.957-2.229 1.644-0.062 2.853 1.008 3.664 1.82 1.337 1.335 1.931 2.567 1.813 3.762-0.114 1.156-0.869 2.188-2.315 3.157-0.464 0.279-0.542 0.516-0.565 0.693-0.057 0.469 0.21 1.625 2.652 4.069 2.441 2.439 3.596 2.699 4.069 2.652 0.178-0.023 0.414-0.103 0.668-0.528 0.994-1.483 2.027-2.24 3.182-2.352 1.179-0.133 2.423 0.473 3.76 1.812 0.812 0.812 1.888 2.076 1.822 3.666-0.052 1.228-0.759 2.485-2.229 3.956-1.289 1.289-2.789 1.792-4.345 1.792z" fill="rgba(16.065,16.065,16.065,1)"></path>
    </g>
  </svg>