<svg xmlns="http://www.w3.org/2000/svg" viewBox="0 0 32 32" width="22" height="22" style="border-color: rgba(187,187,187,1);border-width: 0px;border-style: solid" filter="none">
    
    <g>
    <path d="M26.188 20.168c0.155 0.129 0.267 0.225 0.378 0.321l-0.034-0.029c0.75 0.648 1.050 1.008 1.082 1.046 0 0.001 0.065 0.080 0.13 0.159 0.015 0.018 0.046 0.056 0.076 0.094l0.017 0.022c0.016 0.020 0.029 0.037 0.038 0.049 0.018 0.023 0.035 0.050 0.050 0.077l0.002 0.003 0.159 0.242v0.023c0.314 0.658 0.095 1.525-0.101 1.963-0.346 0.773-0.997 1.558-1.491 2.034-0.994 0.958-2.354 2.058-4.056 2.058-0.178 0-0.359-0.012-0.538-0.036-1.24-0.162-3.134-0.942-5.196-2.139-2.238-1.3-4.397-2.935-6.080-4.605s-3.331-3.815-4.642-6.038c-1.21-2.052-1.999-3.942-2.165-5.185-0.109-0.814 0.083-1.719 0.557-2.618 0.423-0.803 1.054-1.577 1.824-2.239 0.046-0.039 0.090-0.078 0.134-0.116 0.593-0.511 1.105-0.954 1.954-1.284 0.298-0.132 0.579-0.196 0.858-0.196 0.256 0 0.513 0.056 0.763 0.166l0.011 0.005c0.113 0.053 0.299 0.155 0.348 0.181 0.146 0.074 0.945 0.515 1.83 1.744 0.283 0.393 0.727 1.056 1.051 1.633 0.545 0.97 0.9 1.808 0.915 1.844l0.010 0.024 0.069 0.216c0.228 0.609 0.094 1.241-0.361 1.694-0.026 0.027-0.057 0.060-0.058 0.060l-0.038 0.040-0.029 0.020c-0.019 0.017-0.058 0.051-0.082 0.072-0.069 0.061-0.090 0.080-0.114 0.098l-0.021 0.015c-0.292 0.201-0.397 0.261-0.509 0.324-0.076 0.043-0.154 0.088-0.323 0.198l-0.008 0.005c-0.288 0.181-0.561 0.295-0.85 0.415-0.228 0.095-0.486 0.202-0.799 0.362-0.45 0.229-0.466 0.882-0.373 1.099 0.555 1.294 1.541 2.604 3.197 4.247 1.46 1.45 2.894 2.378 4.105 3.095 0.147 0.087 0.293 0.129 0.445 0.129 0.428 0 0.838-0.348 1.023-0.692 0.142-0.265 0.275-0.542 0.392-0.786 0.096-0.199 0.186-0.387 0.272-0.551l0.002-0.004c0.214-0.399 0.371-0.656 0.465-0.8 0.067-0.103 0.133-0.204 0.209-0.286 0.185-0.272 0.475-0.501 0.784-0.613 0.174-0.063 0.375-0.096 0.581-0.096 0.266 0 0.521 0.056 0.718 0.158l0.527 0.276-0 0.001c0.040 0.022 0.081 0.048 0.129 0.079 0.058 0.037 0.142 0.092 0.248 0.163 0.47 0.307 0.75 0.498 1.028 0.692l-0.169-0.111c0.105 0.072 0.167 0.116 0.228 0.16l-0.039-0.027 1.461 1.14z" fill="rgba(246.075,163.965,163.965,1)"></path>
    </g>
  </svg>